<svg width="21" height="37" viewBox="0 0 21 37" fill="none" xmlns="http://www.w3.org/2000/svg">
<path d="M19.4995 18.1863C19.4995 17.757 19.8347 17.4084 20.2498 17.4084C20.6637 17.4084 21 17.7559 21 18.1863C21 21.1809 19.8189 23.9039 17.9169 25.876C16.1802 27.6765 13.8417 28.8543 11.25 29.0455V35.4444H14.7628C15.1768 35.4444 15.5131 35.7918 15.5131 36.2222C15.5131 36.6514 15.1779 37 14.7628 37H6.23812C5.82413 37 5.48788 36.6525 5.48788 36.2222C5.48788 35.793 5.82304 35.4444 6.23812 35.4444H9.75092V29.0455C7.15936 28.8531 4.81994 27.6764 3.08307 25.876C1.18107 23.9041 0 21.181 0 18.1863C0 17.757 0.335158 17.4084 0.750239 17.4084C1.16423 17.4084 1.50048 17.7559 1.50048 18.1863C1.50048 20.7517 2.51398 23.0853 4.1449 24.7762C5.77583 26.4671 8.0267 27.5178 10.5022 27.5178C12.9767 27.5178 15.2263 26.4671 16.8585 24.7762C18.4895 23.0854 19.503 20.7518 19.503 18.1863H19.4995ZM10.499 0.00131514C12.2301 0.00131514 13.8037 0.735982 14.9441 1.91728C16.0835 3.09861 16.7921 4.73114 16.7921 6.52579V18.1872C16.7921 19.9784 16.0835 21.6098 14.943 22.7934C13.8046 23.977 12.2311 24.7105 10.5 24.7105C8.769 24.7105 7.19532 23.9759 6.0549 22.7946L6.01328 22.7467C4.89752 21.5678 4.20686 19.955 4.20686 18.1858V6.52447C4.20686 4.72972 4.91548 3.0983 6.0549 1.91596C7.19435 0.734634 8.769 0 10.5 0L10.499 0.00131514Z" fill="url(#paint0_linear_249_565)"/>
<defs>
<linearGradient id="paint0_linear_249_565" x1="10.5" y1="0" x2="18.7972" y2="36.9051" gradientUnits="userSpaceOnUse">
<stop stop-color="#6EBCA4"/>
<stop offset="1" stop-color="#F1F382"/>
</linearGradient>
</defs>
</svg>
