<?xml version="1.0" encoding="UTF-8"?>
<svg id="Layer_1" data-name="Layer 1" xmlns="http://www.w3.org/2000/svg" viewBox="0 0 1383.9 396.18">
  <defs>
    <style>
      .cls-1 {
        fill: #fff;
        stroke-width: 0px;
      }
    </style>
  </defs>
  <g>
    <path class="cls-1" d="M942.16,266.62c0-6.34,1.05-12,3.17-16.98,2.11-4.98,4.98-9.05,8.6-12.22,3.62-3.17,7.77-5.58,12.45-7.24,4.68-1.66,9.43-2.49,14.26-2.49s9.51.83,14.03,2.49c4.53,1.66,8.6,4.07,12.22,7.24,3.62,3.17,6.49,7.24,8.6,12.22,2.11,4.98,3.17,10.64,3.17,16.98s-1.06,11.92-3.17,16.75c-2.11,4.83-4.98,8.83-8.6,12-3.62,3.17-7.7,5.59-12.22,7.24-4.53,1.66-9.21,2.49-14.03,2.49s-9.58-.83-14.26-2.49c-4.68-1.66-8.83-4.07-12.45-7.24-3.62-3.17-6.49-7.17-8.6-12-2.11-4.82-3.17-10.41-3.17-16.75ZM947.6,62.92c0-6.34,1.05-11.92,3.17-16.75,2.11-4.82,4.98-8.83,8.6-12,3.62-3.17,7.77-5.58,12.45-7.24,4.68-1.66,9.43-2.49,14.26-2.49s9.51.83,14.03,2.49c4.53,1.66,8.6,4.07,12.22,7.24,3.62,3.17,6.49,7.17,8.6,12,2.11,4.83,3.17,10.41,3.17,16.75s-1.06,11.93-3.17,16.75c-2.11,4.83-4.98,8.83-8.6,12-3.62,3.17-7.7,5.59-12.22,7.24-4.53,1.66-9.21,2.49-14.03,2.49s-9.58-.83-14.26-2.49c-4.68-1.66-8.83-4.07-12.45-7.24-3.62-3.17-6.49-7.17-8.6-12-2.11-4.82-3.17-10.41-3.17-16.75ZM1172.12,238.11c0,13.88-3.55,26.64-10.64,38.25-7.09,11.62-16.75,21.5-28.97,29.65-12.22,8.15-26.56,14.48-43,19.01-16.45,4.53-33.88,6.79-52.28,6.79-11.77,0-22.63-.91-32.59-2.72-9.96-1.81-18.41-4.82-25.35-9.05l.91-2.26c5.43,2.72,11.77,4.91,19.01,6.56,7.24,1.66,15.09,2.49,23.54,2.49,12.68,0,23.16-4.14,31.46-12.45,8.3-8.3,14.56-18.71,18.79-31.23,4.22-12.52,6.56-26.18,7.02-40.97.45-14.78-.98-28.67-4.3-41.65-3.32-12.97-8.37-24.06-15.16-33.27-6.79-9.2-15.16-14.41-25.12-15.62-2.11,0-3.93-.07-5.43-.23-1.51-.15-2.57-.23-3.17-.23v-1.36c7.54,0,14.18-2.41,19.92-7.24,5.73-4.82,10.56-10.94,14.49-18.33,3.92-7.39,6.86-15.69,8.83-24.9,1.96-9.2,2.94-18.18,2.94-26.93,0-12.97-2.04-23.61-6.11-31.91-4.07-8.3-9.28-14.86-15.62-19.69-6.34-4.82-13.21-8.22-20.6-10.19-7.4-1.96-14.56-2.94-21.5-2.94s-13.58.76-19.01,2.26c-5.43,1.51-8.91,3.17-10.41,4.98l-2.72-2.72c8.45-3.92,18.18-6.94,29.2-9.05,11.01-2.11,22.41-3.17,34.18-3.17,13.58,0,27.08,1.44,40.51,4.3,13.42,2.87,25.42,7.47,35.99,13.81,10.56,6.34,19.16,14.42,25.8,24.22,6.63,9.81,9.96,21.66,9.96,35.53,0,20.82-7.85,37.57-23.54,50.25-15.69,12.68-36.52,20.22-62.47,22.63,32.29,2.42,57.94,11.17,76.95,26.26,19.01,15.09,28.52,35.46,28.52,61.11Z"/>
    <g>
      <path class="cls-1" d="M1231.8,396.18c-19.01-1.81-36.21-7.02-51.6-15.62-15.39-8.6-28.52-19.99-39.38-34.18-10.86-14.18-19.32-31.01-25.35-50.47-6.04-19.47-9.05-40.97-9.05-64.51s2.94-44.96,8.83-64.28c5.88-19.31,14.26-36.14,25.12-50.47,10.86-14.33,23.99-25.8,39.38-34.4,15.39-8.6,32.59-13.81,51.6-15.62-9.36,9.05-17.36,27.24-23.99,54.55-6.64,27.32-9.96,64.05-9.96,110.23s3.4,83.37,10.19,110.68c6.79,27.32,14.86,45.35,24.22,54.09ZM1258.96,396.18c9.35-8.75,17.43-26.78,24.22-54.09,6.79-27.31,10.19-64.2,10.19-110.68s-3.32-82.91-9.96-110.23c-6.64-27.31-14.64-45.49-23.99-54.55,19.01,1.81,36.14,7.02,51.38,15.62,15.24,8.6,28.29,20.07,39.16,34.4,10.86,14.34,19.24,31.16,25.12,50.47,5.88,19.32,8.83,40.74,8.83,64.28s-2.94,45.04-8.83,64.51c-5.88,19.46-14.26,36.29-25.12,50.47-10.86,14.19-23.99,25.58-39.38,34.18-15.39,8.6-32.59,13.81-51.6,15.62Z"/>
      <path class="cls-1" d="M1206.9,231.4c0-6.34,1.05-11.92,3.17-16.75,2.11-4.82,4.98-8.83,8.6-12,3.62-3.17,7.77-5.58,12.45-7.24,4.68-1.66,9.43-2.49,14.26-2.49s9.51.83,14.03,2.49c4.53,1.66,8.6,4.07,12.22,7.24,3.62,3.17,6.49,7.17,8.6,12,2.11,4.83,3.17,10.41,3.17,16.75s-1.06,11.93-3.17,16.75c-2.11,4.83-4.98,8.83-8.6,12-3.62,3.17-7.7,5.59-12.22,7.24-4.53,1.66-9.21,2.49-14.03,2.49s-9.58-.83-14.26-2.49c-4.68-1.66-8.83-4.07-12.45-7.24-3.62-3.17-6.49-7.17-8.6-12-2.11-4.82-3.17-10.41-3.17-16.75Z"/>
    </g>
  </g>
  <g>
    <path class="cls-1" d="M109.12,282.08c-14.16,0-27.19-2.38-39.1-7.12-11.92-4.75-22.27-11.46-31.04-20.16-8.78-8.69-15.55-18.99-20.29-30.91-4.75-11.91-7.12-25.04-7.12-39.37s2.51-26.88,7.53-38.7c5.01-11.83,11.96-22.08,20.83-30.77,8.87-8.69,19.35-15.45,31.44-20.29,12.09-4.84,25.31-7.26,39.64-7.26,8.96,0,17.74,1.17,26.34,3.49,8.6,2.33,16.62,5.78,24.05,10.35,7.43,4.57,13.84,9.99,19.22,16.26l-27.95,31.98c-3.76-3.94-7.75-7.39-11.96-10.35-4.21-2.96-8.83-5.24-13.84-6.85-5.02-1.61-10.39-2.42-16.13-2.42-7.17,0-13.93,1.3-20.29,3.9-6.36,2.6-11.92,6.27-16.66,11.02-4.75,4.75-8.47,10.53-11.15,17.33-2.69,6.81-4.03,14.42-4.03,22.84s1.34,15.72,4.03,22.44c2.69,6.72,6.45,12.5,11.29,17.33,4.84,4.84,10.7,8.51,17.6,11.02,6.9,2.51,14.55,3.76,22.98,3.76,5.73,0,11.2-.81,16.39-2.42,5.19-1.61,9.99-3.8,14.38-6.59,4.39-2.78,8.29-5.95,11.69-9.54l22.04,34.94c-4.48,5.02-10.44,9.5-17.87,13.44-7.44,3.94-15.68,7.03-24.73,9.27-9.05,2.24-18.14,3.36-27.28,3.36Z"/>
    <path class="cls-1" d="M210.16,279.39V91.26h45.69v147.82h83.85v40.31h-129.54Z"/>
    <path class="cls-1" d="M373.84,279.39V91.26h131.15v38.97h-86.81v110.19h89.5v38.97h-133.84ZM395.34,202.25v-37.09h97.56v37.09h-97.56Z"/>
    <path class="cls-1" d="M523.26,279.39l74.45-188.13h38.7l73.91,188.13h-46.23l-35.48-95.41c-1.44-3.76-2.87-7.79-4.3-12.09-1.44-4.3-2.87-8.73-4.3-13.3-1.44-4.57-2.82-9.05-4.17-13.44-1.34-4.39-2.46-8.46-3.36-12.23l8.06-.27c-1.07,4.48-2.28,8.87-3.63,13.17-1.34,4.3-2.69,8.56-4.03,12.77-1.34,4.21-2.82,8.42-4.43,12.63-1.61,4.21-3.14,8.56-4.57,13.03l-35.48,95.14h-45.15ZM558.74,243.37l14.24-34.4h86.54l13.98,34.4h-114.76Z"/>
    <path class="cls-1" d="M733.7,279.39V91.26h84.66c12,0,22.89,2.6,32.65,7.79,9.76,5.2,17.42,12.32,22.98,21.37,5.55,9.05,8.33,19.31,8.33,30.77s-2.78,22.44-8.33,31.85c-5.56,9.41-13.17,16.8-22.85,22.17-9.67,5.38-20.61,8.06-32.79,8.06h-41.12v66.11h-43.54ZM777.24,178.33h37.09c4.66,0,8.73-1.03,12.23-3.09,3.49-2.06,6.18-4.97,8.06-8.73,1.88-3.76,2.82-8.06,2.82-12.9s-1.08-9.09-3.23-12.77c-2.15-3.67-5.24-6.49-9.27-8.47-4.03-1.97-8.92-2.96-14.65-2.96h-33.06v48.91ZM837.98,279.39l-47.84-84.93,46.76-6.72,53.21,91.65h-52.14Z"/>
  </g>
</svg>